<?xml version="1.0" encoding="utf-8"?>
<!-- Generator: Adobe Illustrator 24.0.1, SVG Export Plug-In . SVG Version: 6.00 Build 0)  -->
<svg version="1.1" id="Capa_1" xmlns="http://www.w3.org/2000/svg" xmlns:xlink="http://www.w3.org/1999/xlink" x="0px" y="0px"
	 viewBox="0 0 595.3 841.9" style="enable-background:new 0 0 595.3 841.9;" xml:space="preserve">
<style type="text/css">
	.st0{fill:#0E1A27;stroke:#000000;stroke-width:0.75;stroke-miterlimit:10;}
	.st1{fill:#C084FC;}
	.st2{fill:#5C23AE;}
	.st3{fill:#464D6B;}
	.st4{fill:#C44EF8;}
	.st5{fill:#9E46F5;}
	.st6{fill:#202B40;}
</style>
<path class="st0" d="M280.3,227.5c18.4-12.5,39.1-13.7,60.1-9.5c25.5,5,43.8,20.4,56.7,42.5c6.3,10.7,11.9,21.9,18.1,32.7
	c8.6,14.9,21.3,22.8,39,22.5c18-0.3,36-0.1,54-0.1c19.6,0,39.2,0.1,58.8-0.1c13.4-0.1,24.7-9,27.6-21.7c1.6-6.9,0.9-13.9,0-20.8
	c-3.7-27.5-12.6-53.5-26.7-77.2C512.7,102.9,430.1,53.9,323.2,45.3c-31.8-2.6-63.7-0.2-95,7.2c-85.1,20-151.3,65.9-194.3,142.9
	c-21.8,39-29.8,81.2-22.7,125.4c8.6,53.4,37.4,94.7,80.3,126.5c22,16.3,47.2,26.2,72.8,35.2c41.6,14.6,83.9,27.3,125.9,40.6
	c14.4,4.5,27.6,10.8,36.9,23.2c6,7.9,9.3,16.8,8.3,26.9c-1.8,18-13.1,28.8-28.7,35.4c-17.8,7.5-36.5,7.5-55,2.6
	c-27.4-7.2-47.6-24.3-62.2-48.1c-6.1-9.8-11.4-20.1-16.9-30.3c-9.3-17.2-23.2-26.1-43.2-25.9c-33.2,0.4-66.3,0.1-99.5,0.1
	C14,507,2.1,517.2,0.3,532.8c-0.6,4.7-0.3,9.6,0.1,14.4c1.9,25.8,9.6,50,21.1,73c31.4,62.7,79.9,108,143.3,137.4
	c55.8,25.8,114.7,32.2,175.3,25.8c48-5,92.4-20.7,132.8-47.4c30.2-19.9,55.8-44.7,76.2-74.5c13.2-19.2,23.6-39.9,31.1-62.2
	c6.8-20.3,10.6-41,9.9-62.3c-1.6-45.7-18.6-85.4-48.3-119.9c-25.7-29.8-58.3-49.2-94.7-62.8c-43.3-16.2-87.7-29.5-131.6-43.9
	c-14.7-4.9-29.6-9.5-40.9-21C256.3,270.8,254.9,244.8,280.3,227.5z M226.5,216.2c-6.4,9.7-10.1,20.8-11.7,32.7
	c-2.1,15.5-0.1,30.1,5.7,44.3c6.6,16.3,17.9,28.8,31.7,39.4c7.8,6,16.5,10.3,25.3,14.5c4.2,2,9.3,0.5,13.7,2.7
	c2.1,1.1,4.4,1.6,5.2,4.1c5.5,2.6,11.8,3.3,17.1,6.6c9.2,2.9,18.6,5.7,27.8,8.8c22.9,7.7,45.7,15.5,68.5,23.3
	c16.6,5.7,33,11.9,48.3,20.7c2,1.1,3.8,2.4,5.7,3.6c1.8,0.9,3.9,1.4,5,3.4c0.7,0,1.2,0.2,1.3,1l0.1-0.1c0.4-0.1,0.6,0.1,0.7,0.5
	c0.4,0.3,0.8,0.5,1.2,0.8c12.4,7.3,22.7,17.1,31.8,28.1c0.3,0.4,0.6,0.8,0.9,1.2c1.2,0.6,2.1,1.6,2.5,3
	c11.5,13.2,18.9,28.6,24.6,44.9c3.4,9.7,6,19.6,6.6,30c1.4,2.8,1.1,5.6,0.6,8.5v2.2c1.2,15.6-0.9,30.8-5.6,45.6
	c-8.4,26.5-22.7,49.4-41.4,69.8c-2.2,2.5-5.8,3.5-7.3,6.7c0.7,4.3-3.3,4.7-5.6,5.7c-2,0.8-1.7-1.7-1-2.8c2.2-3.6,2.7-8,5.5-11.3
	c10.6-28,18.8-56.7,18.1-86.9c-0.5-21.7-4.9-42.7-14.5-62.3c-9.4-19.4-21.3-37-36.4-52.5c-2.9-2.9-6.6-4.8-8.7-8.5
	c-6.8-4.4-13.3-9.3-19.4-14.7c-19.3-12.6-40.7-20.4-62.3-27.9c-5-1.7-9.8-3.6-14.7-5.5c-4.3-1.4-8.6-2.7-12.9-4.1
	c-0.4-0.2-0.7-0.4-1.1-0.6c-0.7-0.2-1.3-0.4-2-0.6c-1.3,0.1-2.7,0.4-3.1-1.4c-0.5-0.2-0.8-0.5-1.3-0.7c-6.9-1.5-13.7-3.1-20.2-6
	c-6-2.7-12.3-4.6-18.5-6.6c-16.7-5.4-33.4-11-49.6-17.8c-6.9-2.9-13.7-6.5-19.8-11c-0.7-0.4-1.5-0.9-2.2-1.3
	c-10.3-5-19.6-11.6-28-19.2c-18.8-17-31.9-37.8-36.6-63c-4.2-22.5-2-44.6,5.6-66.2c3.3-9.5,7.5-18.8,12.1-29
	c-7.1,2.7-12.2,7.1-17.2,11.1c-18.8,15.1-34.3,33.3-45.5,54.6c-18.8,35.6-19.5,71,3.9,105c0.3,0.4,0.4,1,0.5,1.5
	c0.1,0.1,0.1,0.2,0.2,0.4c0,0,0.1,0.1,0.1,0.1c0,0,0,0,0,0h0.1c0.6,0.8,1.3,1.7,1.9,2.5c1.5-0.2,1.9,0.7,2,2
	c14.2,18.2,32.6,31.3,52.4,42.7c11.2,6.5,23.6,10.7,34.9,16.9c0.3-0.1,0.6-0.1,0.8,0.2c13.5,5,27.1,9.9,40.6,14.9
	c17.5,5.7,35,11.3,52.5,17.2c16.6,5.6,33.1,11.4,49.7,17.1c1.1,0.4,2.4,0.6,3,1.9c13.6,3.4,26.4,8.9,38.9,15.3
	c4.2,2.1,8.6,4.1,12.2,7.3c6.3,3.4,12,7.6,17.2,12.5c33.4,28,47.2,64,43.4,107.1c-0.1,0.9-0.5,1.7-0.7,2.6c0.3,0.3,0.2,0.6-0.1,0.9
	c0,1.1-0.1,2.1-0.1,3.2c-0.1,0.7-0.1,1.5-0.2,2.2c-0.2,0.8-0.4,1.5-0.6,2.3c-4.2,25.5-16.1,47.2-33.3,66.1c-0.2,1.2-1.1,1.8-2,2.4
	c-1.9,2.4-3.8,4.8-6.4,6.5c-11.2,12.2-24.6,21.6-39.4,28.9c-1,1.6-2.7,2-4.5,1.9c-11.2,7.8-24.2,11.1-37,14.7
	c-8.5,2.3-17,4.9-26,4.6c-3.3,1.6-6.9,1.7-10.4,1.9c-23.8,1.6-47.4-0.7-70.4-6.6c-33.1-8.5-63.6-22.9-90.8-43.8
	c-9-6.9-17.9-13.8-25.5-22.3c-12.7-11.4-23.1-24.7-32.7-38.7c-2.3-3.5-4.5-7-6.7-10.5c-6.6-10.7-11.7-22.2-16-33.9
	c-2.6-7.1-4.3-14.6-6.3-21.9c-0.7-2.7-1-5.2,3.4-5.1c22.3,0.3,44.5,0.3,66.7,0.4c1.4,0,2.8,0.3,4.2,0.5c5.2,4.2,7.4,10.5,10.9,15.9
	c7.5,11.6,14.9,23.3,23.8,33.9c0.5,0.6,1.3,1.1,1.9,1.7c0.7-0.1,1.2-1.9,2-0.6c4.6,7,10.6,12.4,17.5,17c3.8,2.4,7,5.7,10.7,8.3
	c4.8,3.4,9.7,7,15.8,7.4c4.9,0.3,2.9,3.9,3.4,6.3c25.8,13.4,53.1,18.4,82,15.8c12.3-1.1,24-4.7,35.5-8.7c6.9-2.4,13-7.7,19.4-11.7
	c2.1-1.3,4.1-2.7,6.2-4.1c2.3-3.3,5.4-5.8,8.3-8.6l0.2-0.2c2.2-2.7,4.3-5.5,6.5-8.2V619c1.7-3.9,4-7.3,6.4-10.7
	c2.3-6.4,5.3-12.5,6.8-19.2c5.1-22.1,1.1-42.9-9.1-62.8v-0.1c-1.7-1.1-2.4-2.9-3-4.8c-2.4-1.8-3.8-4.5-5.1-7.1
	c-0.3-0.1-0.5-0.4-0.5-0.7c-3.2-3.3-6.3-6.7-9.4-10h-0.1c-0.1,0-0.2,0-0.3,0c-0.3-0.1-0.5-0.3-0.7-0.6c0-0.1-0.1-0.3-0.1-0.4
	c-7.2-5.8-14.7-11.2-22.6-16c-0.3,0.1-0.6,0-0.8-0.3c-10.4-5.2-21.8-7.8-32.4-12.5c-0.7-0.1-1.3-0.2-1.9-0.3
	c-8-2.4-16.1-4.9-24.1-7.3c-8.2-2.5-16.5-5-24.7-7.6c-3.8-1.2-7.5-2.7-11.2-4.1c-4.1,0.2-7.8-1.6-11.3-2.9
	c-22.5-8.3-45.8-14.7-67.5-25c-6.7-3.2-13.4-6.3-19.6-10.5c-20.7-12.4-38-28.5-52-48.2c-15-21-23.9-44.2-26.1-70
	c-3-35.6,7.4-67.4,26.3-97c24.1-37.7,57.1-65.5,97.5-84.3c23.3-10.8,47.9-17.7,73.4-21.5c27.9-4.2,56-5.5,84-1.2
	c57.7,8.9,107.6,33.4,148,75.8c25.6,26.9,44.9,57.7,54.5,94c0.3,1.2,0.5,2.4,0.7,3.6c-1.3,1.8-3.2,1-4.9,1c-25.3,0-50.5-0.1-75.8,0
	c-3.4,0-5.5-0.7-7.3-3.9c-8.6-14.9-17.2-29.7-28-43.2c-16.3-20.5-36.5-35.4-60.9-44.7c-16.9-6.4-34.6-8.8-52.6-8.8
	c-3.9,2.1-8.3,1.6-12.5,2.1c-13,1.7-25,6.1-36.7,11.5C249,189,236.3,201.3,226.5,216.2z"/>
<path class="st1" d="M543.5,263.7c-9.6-36.3-28.9-67.1-54.5-94c-40.4-42.4-90.3-66.9-148-75.8c-28-4.3-56.1-3-84,1.2
	c-25.5,3.8-50.1,10.7-73.4,21.5c-40.4,18.8-73.4,46.6-97.5,84.3c-18.9,29.6-29.3,61.4-26.3,97c2.2,25.8,11.1,49,26.1,70
	c14,19.7,31.3,35.8,52,48.2c6.2,4.2,12.9,7.3,19.6,10.5c21.7,10.3,45,16.7,67.5,25c3.5,1.3,7.2,3.1,11.3,2.9
	c3.7,1.4,7.4,2.9,11.2,4.1c8.2,2.6,16.5,5.1,24.7,7.6c8,2.4,16.1,4.9,24.1,7.3c0.6,0.1,1.2,0.2,1.9,0.3c10.6,4.7,22,7.3,32.4,12.5
	c0.2,0.3,0.5,0.4,0.8,0.3c7.9,4.8,15.4,10.2,22.6,16c0,0.1,0,0.3,0.1,0.4c0.2,0.2,0.5,0.4,0.7,0.6c0.1,0,0.2,0,0.3,0h0.1
	c3.1,3.3,6.2,6.7,9.4,10c0,0.3,0.2,0.6,0.5,0.7c1.3,2.6,2.7,5.3,5.1,7.1c0.6,1.9,1.3,3.7,3,4.8v0.1c10.2,19.9,14.2,40.7,9.1,62.8
	c-1.5,6.7-4.5,12.8-6.8,19.2c-2.4,3.4-4.7,6.8-6.4,10.7v0.1c-2.2,2.7-4.3,5.5-6.5,8.2l-0.2,0.2c-2.9,2.8-6,5.3-8.3,8.6
	c-2.1,1.4-4.1,2.8-6.2,4.1c-6.4,4-12.5,9.3-19.4,11.7c-11.5,4-23.2,7.6-35.5,8.7c-28.9,2.6-56.2-2.4-82-15.8c-0.5-2.4,1.5-6-3.4-6.3
	c-6.1-0.4-11-4-15.8-7.4c-3.7-2.6-6.9-5.9-10.7-8.3c-6.9-4.6-12.9-10-17.5-17c-0.8-1.3-1.3,0.5-2,0.6c-0.6-0.6-1.4-1.1-1.9-1.7
	c-8.9-10.6-16.3-22.3-23.8-33.9c-3.5-5.4-5.7-11.7-10.9-15.9c-1.4-0.2-2.8-0.5-4.2-0.5c-22.2-0.1-44.4-0.1-66.7-0.4
	c-4.4-0.1-4.1,2.4-3.4,5.1c2,7.3,3.7,14.8,6.3,21.9c4.3,11.7,9.4,23.2,16,33.9c2.2,3.5,4.4,7,6.7,10.5c9.6,14,20,27.3,32.7,38.7
	c7.6,8.5,16.5,15.4,25.5,22.3c27.2,20.9,57.7,35.3,90.8,43.8c23,5.9,46.6,8.2,70.4,6.6c3.5-0.2,7.1-0.3,10.4-1.9
	c9,0.3,17.5-2.3,26-4.6c12.8-3.6,25.8-6.9,37-14.7c1.8,0.1,3.5-0.3,4.5-1.9c14.8-7.3,28.2-16.7,39.4-28.9c2.6-1.7,4.5-4.1,6.4-6.5
	c0.9-0.6,1.8-1.2,2-2.4c17.2-18.9,29.1-40.6,33.3-66.1c0.2-0.8,0.4-1.5,0.6-2.3c0.1-0.7,0.1-1.5,0.2-2.2c0-1.1,0.1-2.1,0.1-3.2
	c0.3-0.3,0.4-0.6,0.1-0.9c0.2-0.9,0.6-1.7,0.7-2.6c3.8-43.1-10-79.1-43.4-107.1c-5.2-4.9-10.9-9.1-17.2-12.5
	c-3.6-3.2-8-5.2-12.2-7.3c-12.5-6.4-25.3-11.9-38.9-15.3c-0.6-1.3-1.9-1.5-3-1.9c-16.6-5.7-33.1-11.5-49.7-17.1
	c-17.5-5.9-35-11.5-52.5-17.2c-13.5-5-27.1-9.9-40.6-14.9c-0.2-0.3-0.5-0.3-0.8-0.2c-11.3-6.2-23.7-10.4-34.9-16.9
	c-19.8-11.4-38.2-24.5-52.4-42.7c-0.1-1.3-0.5-2.2-2-2c-0.6-0.8-1.3-1.7-1.9-2.5h-0.1c0,0,0,0,0,0c0.1,0.1,0.1,0.2,0.1,0.3
	c-0.2-0.1-0.2-0.3-0.3-0.5c0,0,0,0,0.1,0.1c-0.1-0.1-0.1-0.2-0.2-0.4c-0.1-0.5-0.2-1.1-0.5-1.5c-23.4-34-22.7-69.4-3.9-105
	c11.2-21.3,26.7-39.5,45.5-54.6c5-4,10.1-8.4,17.2-11.1c-4.6,10.2-8.8,19.5-12.1,29c-7.6,21.6-9.8,43.7-5.6,66.2
	c4.7,25.2,17.8,46,36.6,63c8.4,7.6,17.7,14.2,28,19.2c0.7,0.4,1.5,0.9,2.2,1.3c6.1,4.5,12.9,8.1,19.8,11
	c16.2,6.8,32.9,12.4,49.6,17.8c6.2,2,12.5,3.9,18.5,6.6c6.5,2.9,13.3,4.5,20.2,6c0.5,0.2,0.8,0.4,1.3,0.6c0,0,0,0,0,0l0.1,0.1
	c0,0-0.1,0-0.1,0c0.4,1.8,1.8,1.5,3.1,1.4c0.7,0.2,1.3,0.4,2,0.6c0.4,0.2,0.7,0.4,1.1,0.6c4.3,1.4,8.6,2.7,12.9,4.1
	c4.9,1.9,9.7,3.8,14.7,5.5c21.6,7.5,43,15.3,62.3,27.9c6.1,5.4,12.6,10.3,19.4,14.7c2.1,3.7,5.8,5.6,8.7,8.5
	c15.1,15.5,27,33.1,36.4,52.5c9.6,19.6,14,40.6,14.5,62.3c0.7,30.2-7.5,58.9-18.1,86.9c-2.8,3.3-3.3,7.7-5.5,11.3
	c-0.7,1.1-1,3.6,1,2.8c2.3-1,6.3-1.4,5.6-5.7c1.5-3.2,5.1-4.2,7.3-6.7c18.7-20.4,33-43.3,41.4-69.8c4.7-14.8,6.8-30,5.6-45.6v-2.2
	c0.5-2.9,0.8-5.7-0.6-8.5c-0.6-10.4-3.2-20.3-6.6-30c-5.7-16.3-13.1-31.7-24.6-44.9c-0.4-1.4-1.3-2.4-2.5-3
	c-0.3-0.4-0.6-0.8-0.9-1.2c-9.1-11-19.4-20.8-31.8-28.1c-0.4-0.3-0.8-0.5-1.2-0.8c-0.1-0.4-0.3-0.6-0.7-0.5l-0.1,0.1
	c-0.1-0.8-0.6-1-1.3-1c-1.1-2-3.2-2.5-5-3.4c-1.9-1.2-3.7-2.5-5.7-3.6c-15.3-8.8-31.7-15-48.3-20.7c-22.8-7.8-45.6-15.6-68.5-23.3
	c-9.2-3.1-18.6-5.9-27.8-8.8c-5.3-3.3-11.6-4-17.1-6.6c-0.8-2.5-3.1-3-5.2-4.1c-4.4-2.2-9.5-0.7-13.7-2.7
	c-8.8-4.2-17.5-8.5-25.3-14.5c-13.8-10.6-25.1-23.1-31.7-39.4c-5.8-14.2-7.8-28.8-5.7-44.3c1.6-11.9,5.3-23,11.7-32.7
	c9.8-14.9,22.5-27.2,39-34.9c11.7-5.4,23.7-9.8,36.7-11.5c4.2-0.5,8.6,0,12.5-2.1c18,0,35.7,2.4,52.6,8.8
	c24.4,9.3,44.6,24.2,60.9,44.7c10.8,13.5,19.4,28.3,28,43.2c1.8,3.2,3.9,3.9,7.3,3.9c25.3-0.1,50.5,0,75.8,0c1.7,0,3.6,0.8,4.9-1
	C544,266.1,543.8,264.9,543.5,263.7z M538.4,529.6c1.5,2.8,1.2,5.6,0.6,8.5C537.6,535.4,538.2,532.5,538.4,529.6z M217.3,346.9
	c-0.7-0.4-1.5-0.8-2.2-1.3C216.1,345.6,216.9,345.9,217.3,346.9z"/>
<path class="st2" d="M539,538.1c-1.4-2.7-0.8-5.6-0.6-8.5C539.9,532.4,539.6,535.2,539,538.1z"/>
<path class="st3" d="M217.3,346.9c-0.7-0.4-1.5-0.8-2.2-1.3C216.1,345.6,216.9,345.9,217.3,346.9z"/>
<path class="st4" d="M458.1,610.2c0.2-0.8,0.4-1.5,0.6-2.3C458.5,608.6,458.3,609.4,458.1,610.2z"/>
<path class="st5" d="M110.3,341.3c-0.2-0.1-0.2-0.3-0.3-0.5c0,0,0,0,0.1,0.1c0,0,0.1,0.1,0.1,0.1C110.2,341,110.2,341.2,110.3,341.3
	z"/>
<path class="st6" d="M326.8,389.1C326.8,389.1,326.7,389.1,326.8,389.1c-0.5-0.2-0.9-0.5-1.4-0.7
	C325.9,388.6,326.3,388.8,326.8,389.1C326.7,389.1,326.8,389.1,326.8,389.1z"/>
<path class="st5" d="M355.2,504c-0.6,0-1-0.4-1.1-1c0.2,0.2,0.5,0.4,0.7,0.6C354.9,503.7,355,503.8,355.2,504z"/>
</svg>
