<?xml version="1.0" encoding="UTF-8"?>
<svg id="Capa_1" data-name="Capa 1" xmlns="http://www.w3.org/2000/svg" viewBox="0 0 355.08 134.41">
  <defs>
    <style>
      .cls-1 {
        fill: #604092;
      }

      .cls-2 {
        fill: #1d1d1b;
      }
    </style>
  </defs>
  <path class="cls-2" d="M132.4,53.64c32.75,0,50.43,12.25,50.43,36.77,0,27.53-16.68,44-57.66,44H0l26.72-34.56h101.66c9.84,0,14.26-2.81,14.26-9.84s-4.42-9.64-14.26-9.64H55.25c-34.56,0-50.43-15.47-50.43-38.58C4.82,16.48,21.7,0,62.49,0h116.73c-2.91,.79-12.94,3.9-20.08,13.96-6.24,8.79-6.65,17.78-6.64,21H59.27c-9.64,0-14.26,2.41-14.26,9.24s4.62,9.44,14.26,9.44h73.13Z"/>
  <path class="cls-1" d="M304.64,53.64c32.75,0,50.43,12.25,50.43,36.77,0,27.53-16.68,44-57.66,44h-125.17c1.99-.29,14.25-2.31,21.78-13.65,5.98-9,5.25-18.27,4.95-20.91h101.66c9.84,0,14.26-2.81,14.26-9.84s-4.42-9.64-14.26-9.64h-73.13c-34.56,0-50.43-15.47-50.43-38.58,0-25.31,16.88-41.79,57.66-41.79h116.73l-26.72,34.96h-93.22c-9.64,0-14.26,2.41-14.26,9.24s4.62,9.44,14.26,9.44h73.13Z"/>
</svg>